<?xml version="1.0" encoding="iso-8859-1"?>
<!-- Generator: Adobe Illustrator 19.0.0, SVG Export Plug-In . SVG Version: 6.00 Build 0)  -->
<svg version="1.1" id="Capa_1" xmlns="http://www.w3.org/2000/svg" xmlns:xlink="http://www.w3.org/1999/xlink" x="0px" y="0px"
	 viewBox="0 0 511.966 511.966" style="enable-background:new 0 0 511.966 511.966;" xml:space="preserve">
<g>
	<g transform="translate(1 1)">
		<path style="fill:#00695C;" d="M502.433,254.983c0,2.901-0.085,5.717-0.256,8.533c-0.509,17.306-3.059,34.491-7.595,51.2
			c-1.536,5.803-3.328,11.52-5.291,17.067c-6.361,18.085-14.992,35.289-25.685,51.2c-3.925,5.888-8.192,11.605-12.629,17.067
			c-43.695,54.015-109.468,85.38-178.944,85.333c-5.717,0-11.435-0.171-17.067-0.683V25.266c5.632-0.512,11.349-0.683,17.067-0.683
			c69.476-0.047,135.249,31.318,178.944,85.333c4.495,5.472,8.71,11.168,12.629,17.067c10.694,15.911,19.324,33.115,25.685,51.2
			c1.963,5.547,3.755,11.264,5.291,17.067c4.536,16.709,7.085,33.894,7.595,51.2C502.348,249.266,502.433,252.082,502.433,254.983z"
			/>
		<circle style="fill:#00838F;" cx="237.9" cy="254.983" r="230.4"/>
		<ellipse style="fill:#00BCD4;" cx="225.1" cy="254.983" rx="217.6" ry="230.4"/>
		<path style="fill:#CFD8DC;" d="M237.9,417.117c-89.544,0-162.133-72.59-162.133-162.133S148.356,92.85,237.9,92.85
			s162.133,72.59,162.133,162.133C399.931,344.485,327.401,417.015,237.9,417.117z"/>
		<g>
			<path style="fill:#FFEB3A;" d="M135.219,331.783l16.786-34.133h126.077c3.38-0.014,6.421-2.054,7.717-5.175l28.777-68.267
				c1.151-2.632,0.882-5.669-0.713-8.058c-1.504-2.417-4.162-3.871-7.008-3.833H185.576l16.786-34.133h104.492
				c14.18,0.019,27.378,7.244,35.034,19.179c7.79,12.014,9.115,27.109,3.537,40.296l-28.777,68.267
				c-6.466,15.607-21.674,25.803-38.567,25.858H135.219z"/>
			<polygon style="fill:#FFEB3A;" points="202.358,272.05 118.433,272.05 135.218,237.916 219.143,237.916 			"/>
		</g>
	</g>
	<g>
		<path d="M409.566,255.983c-0.268-80.314-56.264-149.674-134.717-166.867c-11.214-2.366-22.635-3.616-34.096-3.729l-0.504,0.025
			c-0.275-0.029-1.108-0.096-1.383-0.096c-93.882-0.002-170.131,75.835-170.637,169.715
			c-0.507,93.88,74.919,170.536,168.796,171.547l0.929,0.012c0.35,0.029,0.796,0.058,0.983,0.058
			c12.639,0.008,25.241-1.373,37.579-4.117c1.475-0.329,2.946-0.708,5.058-1.254C356.952,401.832,409.609,333.829,409.566,255.983z
			 M272.787,405.879c-10.848,2.418-21.923,3.673-33.037,3.742l-0.563-0.054c-0.233-0.021-0.466-0.033-0.7-0.037l-1.258-0.017
			c-84.313-0.937-152.106-69.669-151.884-153.986s68.376-152.691,152.692-153.185c0.237,0.025,1.029,0.092,1.267,0.096l1.242,0.017
			c84.273,0.634,152.189,69.254,151.954,153.529c-0.001,70.202-47.576,131.478-115.587,148.875
			C275.391,405.25,274.087,405.587,272.787,405.879z"/>
		<path d="M238.9,68.25c1.115-0.014,2.216-0.246,3.242-0.683c1.033-0.434,1.986-1.04,2.817-1.791c1.557-1.637,2.44-3.8,2.475-6.059
			c-0.013-1.116-0.245-2.219-0.683-3.246c-0.413-1.043-1.021-1.997-1.791-2.813c-0.83-0.754-1.782-1.362-2.817-1.796
			c-3.178-1.338-6.849-0.629-9.301,1.796c-0.773,0.814-1.383,1.769-1.796,2.813c-0.436,1.027-0.667,2.13-0.679,3.246
			c-0.022,2.27,0.87,4.453,2.475,6.058S236.63,68.272,238.9,68.25z"/>
		<path d="M244.958,446.191c-0.83-0.754-1.782-1.362-2.817-1.796c-3.178-1.338-6.849-0.629-9.301,1.796
			c-0.754,0.828-1.362,1.78-1.796,2.813c-0.436,1.027-0.667,2.13-0.679,3.246c-0.022,2.27,0.87,4.453,2.475,6.058
			c1.605,1.605,3.788,2.497,6.058,2.475c1.115-0.014,2.216-0.246,3.242-0.683c1.033-0.434,1.986-1.04,2.817-1.792
			c1.557-1.637,2.441-3.799,2.475-6.058c-0.013-1.116-0.245-2.219-0.683-3.246C246.337,447.961,245.729,447.007,244.958,446.191z"/>
		<path d="M182.066,72.429c1.614,1.592,3.792,2.481,6.059,2.475c2.245,0.022,4.403-0.872,5.975-2.475
			c1.629-1.596,2.55-3.778,2.558-6.059c-0.014-0.544-0.071-1.086-0.171-1.621c-0.119-0.555-0.29-1.098-0.513-1.621
			c-0.204-0.509-0.461-0.994-0.767-1.45c-0.301-0.482-0.675-0.915-1.108-1.284c-3.374-3.198-8.66-3.198-12.033,0
			c-1.602,1.573-2.496,3.73-2.475,5.975c-0.017,1.138,0.186,2.268,0.596,3.329C180.633,70.722,181.271,71.648,182.066,72.429z"/>
		<path d="M295.729,451.566c1.603-1.572,2.497-3.73,2.475-5.975c0.009-1.137-0.193-2.266-0.596-3.329
			c-1.072-2.65-3.41-4.58-6.215-5.13c-2.805-0.55-5.699,0.353-7.693,2.401c-0.823,0.757-1.466,1.69-1.879,2.729
			c-0.429,1.059-0.661,2.187-0.683,3.329c0.011,2.256,0.935,4.412,2.562,5.975c0.756,0.823,1.69,1.464,2.729,1.875
			C289.616,454.821,293.325,454.073,295.729,451.566L295.729,451.566z"/>
		<path d="M132.912,89.242c0.17,0.55,0.431,1.068,0.771,1.533l1.025,1.283c0.382,0.392,0.812,0.735,1.279,1.021
			c0.492,0.317,1.005,0.602,1.533,0.854c0.501,0.182,1.015,0.325,1.538,0.429c0.558,0.138,1.134,0.194,1.708,0.167
			c1.109,0.018,2.211-0.184,3.242-0.596c1.02-0.495,1.967-1.125,2.817-1.875c0.341-0.429,0.683-0.854,1.021-1.283
			c0.34-0.465,0.601-0.983,0.771-1.533c0.245-0.485,0.418-1.003,0.513-1.538c0.098-0.565,0.155-1.136,0.171-1.708
			c0.029-1.119-0.205-2.229-0.683-3.242c-0.777-2.143-2.465-3.831-4.608-4.608c-1.557-0.68-3.287-0.86-4.95-0.513
			c-0.535,0.095-1.053,0.268-1.538,0.513c-0.543,0.188-1.058,0.448-1.533,0.771c-0.429,0.341-0.854,0.679-1.279,1.021
			c-0.754,0.83-1.362,1.782-1.796,2.817c-0.436,1.026-0.667,2.127-0.679,3.242c0.013,0.573,0.07,1.144,0.171,1.708
			C132.495,88.239,132.667,88.758,132.912,89.242z"/>
		<path d="M335.325,417.604c-0.536,0.091-1.054,0.264-1.537,0.513c-0.543,0.187-1.058,0.445-1.533,0.767
			c-0.448,0.314-0.876,0.656-1.28,1.025c-3.3,3.365-3.3,8.752,0,12.117c0.425,0.341,0.85,0.683,1.279,1.025
			c0.475,0.322,0.991,0.58,1.533,0.767c0.485,0.245,1.003,0.418,1.538,0.512c0.565,0.094,1.136,0.151,1.708,0.171
			c3.45-0.014,6.556-2.096,7.879-5.282c1.323-3.187,0.606-6.856-1.82-9.31C341.048,417.894,338.136,417.03,335.325,417.604z"/>
		<path d="M96.816,125.079c1.055,0.44,2.186,0.672,3.329,0.683c1.115-0.011,2.217-0.244,3.242-0.683
			c1.04-0.412,1.975-1.053,2.733-1.875c1.626-1.563,2.549-3.719,2.558-5.975c-0.02-1.142-0.252-2.271-0.683-3.329
			c-0.412-1.039-1.053-1.972-1.875-2.729c-2.023-1.982-4.893-2.84-7.672-2.295c-2.779,0.545-5.112,2.425-6.236,5.024
			c-0.413,1.061-0.617,2.191-0.6,3.329c-0.022,2.245,0.872,4.403,2.475,5.975C94.844,124.026,95.777,124.667,96.816,125.079z"/>
		<path d="M380.979,386.883c-3.198-1.276-6.848-0.539-9.3,1.879c-1.629,1.56-2.554,3.715-2.562,5.971
			c0.008,2.281,0.931,4.464,2.562,6.059c1.571,1.603,3.727,2.497,5.971,2.475c2.27,0.022,4.453-0.87,6.058-2.475
			s2.497-3.788,2.475-6.058c0.022-2.244-0.872-4.4-2.475-5.971C382.952,387.938,382.019,387.296,380.979,386.883z"/>
		<path d="M62.854,163.908c1.637,1.556,3.8,2.44,6.059,2.475c2.263-0.019,4.432-0.904,6.062-2.475
			c0.752-0.831,1.358-1.784,1.792-2.817c0.906-2.068,0.906-4.42,0-6.487c-0.434-1.032-1.04-1.983-1.792-2.813
			c-3.423-3.158-8.698-3.158-12.121,0c-0.752,0.83-1.358,1.781-1.792,2.813c-0.911,2.067-0.911,4.421,0,6.487
			C61.496,162.125,62.102,163.077,62.854,163.908z"/>
		<path d="M402.825,348.058c-1.559,1.635-2.443,3.799-2.475,6.059c-0.029,1.119,0.205,2.229,0.683,3.242
			c0.411,1.045,1.02,2.001,1.792,2.817c3.365,3.3,8.752,3.3,12.117,0c0.771-0.816,1.379-1.772,1.792-2.817
			c0.437-1.026,0.669-2.127,0.683-3.242c0.02-3.467-2.059-6.601-5.261-7.931C408.954,344.856,405.266,345.596,402.825,348.058
			L402.825,348.058z"/>
		<path d="M57.225,201.966c-0.234-0.539-0.52-1.054-0.854-1.538c-0.288-0.467-0.632-0.896-1.025-1.279
			c-3.389-3.158-8.644-3.158-12.033,0c-2.408,2.445-3.126,6.091-1.826,9.267c1.3,3.176,4.369,5.271,7.801,5.325
			c2.28-0.008,4.463-0.93,6.059-2.558c1.603-1.572,2.497-3.73,2.475-5.975c0.028-0.575-0.03-1.15-0.171-1.708
			C57.549,202.979,57.407,202.466,57.225,201.966z"/>
		<path d="M428.508,315.287c2.245,0.022,4.403-0.872,5.975-2.475c0.844-0.773,1.488-1.74,1.875-2.817
			c0.44-1.025,0.672-2.127,0.683-3.242c-0.009-2.255-0.932-4.409-2.558-5.971c-3.355-3.246-8.679-3.246-12.033,0
			c-1.603,1.571-2.497,3.727-2.475,5.971c-0.007,2.267,0.882,4.445,2.475,6.059C424.046,314.432,426.235,315.326,428.508,315.287z"
			/>
		<path d="M48.692,262.042c1.557-1.637,2.44-3.8,2.475-6.059c-0.013-1.116-0.245-2.219-0.683-3.246
			c-0.413-1.043-1.021-1.997-1.791-2.813c-3.421-3.158-8.695-3.158-12.117,0c-0.773,0.814-1.383,1.769-1.796,2.813
			c-0.437,1.027-0.668,2.13-0.68,3.246c0.016,2.263,0.902,4.432,2.475,6.059C39.939,265.342,45.326,265.342,48.692,262.042
			L48.692,262.042z"/>
		<path d="M431.921,248.129c-1.033,0.434-1.984,1.041-2.813,1.796c-3.3,3.365-3.3,8.752,0,12.117
			c0.83,0.752,1.781,1.358,2.813,1.792c1.014,0.479,2.126,0.713,3.246,0.683c3.45-0.014,6.556-2.096,7.879-5.282
			c1.323-3.187,0.606-6.856-1.82-9.31C438.768,247.507,435.101,246.8,431.921,248.129z"/>
		<path d="M43.312,300.783c-3.271,3.331-3.247,8.677,0.055,11.978c3.302,3.301,8.648,3.324,11.978,0.051
			c0.394-0.382,0.738-0.812,1.025-1.279c0.334-0.483,0.621-0.998,0.854-1.538c0.183-0.499,0.325-1.012,0.425-1.533
			c0.141-0.558,0.199-1.134,0.171-1.708c0.022-2.244-0.872-4.4-2.475-5.971C51.991,297.537,46.667,297.537,43.312,300.783z"/>
		<path d="M420.574,208.45c0.254,0.513,0.508,1.025,0.767,1.45c0.301,0.482,0.675,0.915,1.108,1.283
			c2.84,2.951,7.382,3.452,10.796,1.189c3.414-2.262,4.723-6.641,3.112-10.406c-0.388-1.077-1.032-2.043-1.875-2.817
			c-0.805-0.768-1.728-1.402-2.733-1.879c-3.199-1.264-6.842-0.528-9.3,1.879c-1.592,1.614-2.481,3.792-2.475,6.059
			c-0.028,0.546,0.03,1.093,0.171,1.621C420.238,207.382,420.382,207.924,420.574,208.45z"/>
		<path d="M74.974,348.058c-3.423-3.158-8.698-3.158-12.121,0c-0.752,0.83-1.358,1.781-1.792,2.813
			c-0.911,2.067-0.911,4.421,0,6.487c0.434,1.033,1.04,1.986,1.792,2.817c1.637,1.556,3.8,2.44,6.059,2.475
			c2.263-0.018,4.433-0.904,6.062-2.474c0.752-0.831,1.358-1.784,1.792-2.817c0.906-2.068,0.906-4.42,0-6.487
			C76.332,349.839,75.726,348.888,74.974,348.058z"/>
		<path d="M408.883,166.383c2.27,0.022,4.453-0.87,6.058-2.475c1.605-1.605,2.497-3.788,2.475-6.058
			c-0.016-2.263-0.902-4.432-2.475-6.059c-3.421-3.158-8.695-3.158-12.117,0c-1.573,1.627-2.459,3.796-2.475,6.059
			c-0.022,2.27,0.87,4.453,2.475,6.058S406.614,166.405,408.883,166.383L408.883,166.383z"/>
		<path d="M103.387,386.883c-2.107-0.854-4.464-0.854-6.571,0c-1.039,0.413-1.972,1.056-2.729,1.879
			c-0.795,0.78-1.432,1.707-1.875,2.729c-1.248,3.2-0.515,6.834,1.875,9.3c0.781,0.796,1.707,1.434,2.729,1.879
			c1.061,0.41,2.192,0.612,3.329,0.596c1.109,0.017,2.211-0.186,3.242-0.596c1.023-0.445,1.951-1.083,2.733-1.879
			c1.635-1.574,2.558-3.745,2.558-6.015s-0.924-4.441-2.558-6.015C105.362,387.939,104.428,387.296,103.387,386.883z"/>
		<path d="M377.65,125.762c1.143-0.011,2.274-0.243,3.329-0.683c1.04-0.411,1.973-1.052,2.729-1.875
			c1.603-1.572,2.497-3.73,2.475-5.975c0.023-2.27-0.869-4.454-2.475-6.059c-1.578-1.628-3.748-2.546-6.015-2.546
			c-2.267,0-4.437,0.919-6.015,2.546c-1.632,1.595-2.555,3.777-2.562,6.059C369.231,121.893,372.985,125.648,377.65,125.762
			L377.65,125.762z"/>
		<path d="M148.616,422.725c-0.187-0.544-0.447-1.062-0.771-1.538c-0.337-0.425-0.679-0.854-1.021-1.279
			c-0.849-0.752-1.796-1.384-2.817-1.879c-3.199-1.267-6.844-0.53-9.3,1.88l-1.025,1.279c-0.324,0.476-0.583,0.993-0.771,1.538
			c-0.246,0.482-0.417,0.999-0.508,1.533c-0.1,0.564-0.157,1.135-0.171,1.708c0.012,1.115,0.243,2.216,0.679,3.242
			c0.434,1.034,1.041,1.987,1.796,2.817c1.635,1.559,3.799,2.443,6.059,2.475c1.115-0.014,2.216-0.246,3.242-0.683
			c2.143-0.777,3.831-2.465,4.608-4.608c0.479-1.012,0.713-2.123,0.684-3.242c-0.016-0.573-0.073-1.144-0.171-1.708
			C149.035,423.724,148.862,423.208,148.616,422.725z"/>
		<path d="M330.974,92.058c0.405,0.366,0.832,0.707,1.279,1.021c0.475,0.323,0.991,0.583,1.534,0.771
			c0.485,0.245,1.003,0.418,1.538,0.513c0.565,0.093,1.136,0.148,1.708,0.167c2.258-0.033,4.421-0.915,6.059-2.471
			c0.787-0.803,1.398-1.763,1.792-2.817c0.479-1.014,0.712-2.125,0.683-3.246c0-4.713-3.821-8.533-8.533-8.533
			s-8.533,3.821-8.533,8.533c0.012,1.116,0.243,2.219,0.679,3.246C329.573,90.296,330.185,91.256,330.974,92.058z"/>
		<path d="M194.1,439.533c-2.413-2.506-6.117-3.274-9.327-1.934c-3.21,1.341-5.268,4.515-5.182,7.992
			c-0.022,2.245,0.872,4.403,2.475,5.975c1.606,1.614,3.782,2.533,6.059,2.558c4.666-0.111,8.423-3.867,8.533-8.533
			c-0.02-1.142-0.252-2.271-0.683-3.329C195.561,441.224,194.921,440.292,194.1,439.533z"/>
		<path d="M286.429,74.308c3.201,1.242,6.832,0.509,9.3-1.879c3.3-3.332,3.3-8.701,0-12.033c-2.458-2.407-6.102-3.141-9.3-1.875
			c-1.039,0.412-1.972,1.053-2.729,1.875c-1.637,1.573-2.563,3.746-2.563,6.017c0,2.271,0.925,4.443,2.563,6.017
			C284.481,73.225,285.407,73.863,286.429,74.308z"/>
		<path d="M501.136,327.165c14.441-46.356,14.441-96.008,0-142.365c-0.071-0.192-0.11-0.387-0.194-0.572
			c-7.996-25.303-20.159-49.094-35.99-70.391c-0.121-0.137-0.186-0.315-0.315-0.443C419.601,52.785,348.544,17.055,273.033,17.05
			c-6.489,0-12.147,0.23-17.333,0.684c-4.529-0.307-9.041-0.521-13.496-0.559c-1.099-0.098-2.201-0.14-3.304-0.125
			C107.607,17.04,0.914,122.99,0.006,254.28s104.309,238.705,235.59,240.512c1.099,0.098,2.201,0.14,3.304,0.125
			c5.711,0,11.396-0.271,17.062-0.667c5.119,0.439,10.686,0.667,17.071,0.667c75.511-0.005,146.568-35.735,191.604-96.346
			c0.129-0.128,0.194-0.306,0.315-0.443c15.831-21.297,27.995-45.088,35.99-70.391C501.026,327.553,501.065,327.357,501.136,327.165
			z M454.083,383.983h-13.491c10.189-16.03,18.428-33.218,24.543-51.2h16.046C474.429,350.963,465.318,368.177,454.083,383.983z
			 M481.18,179.183h-16.31c-6.199-17.987-14.514-35.175-24.769-51.2h13.98C465.318,143.79,474.428,161.004,481.18,179.183z
			 M486.664,196.25c4.673,16.693,7.365,33.878,8.019,51.2h-17.227c-0.571-17.284-3.038-34.454-7.357-51.2H486.664z M470.273,315.716
			c4.243-16.756,6.657-33.923,7.201-51.2h17.209c-0.654,17.322-3.346,34.507-8.019,51.2H470.273z M440.689,110.916h-12.523
			c-16.399-21.421-36.278-39.936-58.809-54.774C396.606,69.369,420.876,88.006,440.689,110.916z M236.512,477.766
			C114.46,476.469,16.386,376.811,17.043,254.754C17.7,132.697,116.84,34.101,238.9,34.116h0.35c0.463,0,0.996,0.009,2.033,0.083
			c121.7,0.996,219.756,100.079,219.483,221.783c0.019,101.313-68.586,189.774-166.717,214.967
			c-2.104,0.542-4.212,1.088-6.325,1.558c-16.03,3.567-32.403,5.358-48.825,5.342C238.316,477.854,237.808,477.858,236.512,477.766
			L236.512,477.766z M372.037,454.45c21.699-14.577,40.858-32.616,56.713-53.4h11.939
			C421.529,423.18,398.202,441.325,372.037,454.45z"/>
		<path d="M350.045,193.721c-9.223-14.367-25.119-23.059-42.192-23.071H203.362c-3.252,0.001-6.222,1.849-7.658,4.767
			l-16.788,34.133c-1.301,2.645-1.145,5.774,0.413,8.277c1.558,2.502,4.297,4.023,7.245,4.023l121.137,0.046l-28.629,68.221H153.004
			c-3.252,0.001-6.222,1.849-7.658,4.767l-16.783,34.133c-1.301,2.645-1.145,5.774,0.414,8.277c1.558,2.502,4.297,4.023,7.245,4.023
			h142.863c20.327-0.051,38.634-12.306,46.429-31.079l28.775-68.262C360.968,226.183,359.378,208.105,350.045,193.721z
			 M338.562,235.346l-28.775,68.267c-5.14,12.439-17.245,20.575-30.704,20.638H149.925l8.392-17.067h120.767
			c6.813-0.011,12.954-4.109,15.579-10.396l28.779-68.279c2.241-5.235,1.707-11.246-1.421-16.004
			c-3.074-4.846-8.429-7.764-14.167-7.721H200.283l8.392-17.067h99.18c11.288,0.023,21.79,5.784,27.875,15.292
			C341.98,212.65,343.041,224.764,338.562,235.346z"/>
		<path d="M211.02,276.817l16.783-34.133c1.301-2.645,1.145-5.774-0.413-8.277c-1.558-2.502-4.297-4.023-7.245-4.023H136.22
			c-3.252,0.001-6.222,1.849-7.658,4.767l-16.788,34.133c-1.301,2.645-1.145,5.774,0.414,8.277c1.558,2.502,4.297,4.023,7.245,4.023
			h83.929C206.614,281.583,209.584,279.734,211.02,276.817z M133.141,264.516l8.392-17.067h64.908l-8.392,17.067H133.141z"/>
	</g>
</g>
<g>
</g>
<g>
</g>
<g>
</g>
<g>
</g>
<g>
</g>
<g>
</g>
<g>
</g>
<g>
</g>
<g>
</g>
<g>
</g>
<g>
</g>
<g>
</g>
<g>
</g>
<g>
</g>
<g>
</g>
</svg>
